<?xml version="1.0" encoding="utf-8"?>
<!-- Generator: Adobe Illustrator 19.1.0, SVG Export Plug-In . SVG Version: 6.00 Build 0)  -->
<svg version="1.1" id="Layer_1" xmlns="http://www.w3.org/2000/svg" xmlns:xlink="http://www.w3.org/1999/xlink" x="0px" y="0px"
	 viewBox="0 0 574 481" style="enable-background:new 0 0 574 481;" xml:space="preserve">
<style type="text/css">
	.st0{fill:#FFFFFF;stroke:#3D3D3D;stroke-width:10;stroke-miterlimit:10;}
	.st1{fill:#FFFFFF;stroke:#E6E6E6;stroke-width:10;stroke-miterlimit:10;}
	.st2{fill:none;stroke:#E6E6E6;stroke-width:10;stroke-miterlimit:10;}
	.st3{fill:#3D3D3D;}
	.st4{fill:#FFFFFF;}
	.st5{fill:#F7C94A;}
	.st6{fill:#313131;}
	.st7{fill:#0D5E8C;}
	.st8{fill:#0071BC;}
	.st9{fill:none;stroke:#8B8B8B;stroke-width:6;stroke-miterlimit:10;stroke-dasharray:15,20,15,20,15,20;}
	.st10{fill:url(#SVGID_1_);}
	.st11{fill:#0075A8;}
	.st12{fill:none;stroke:#3D3D3D;stroke-width:10;stroke-miterlimit:10;}
	.st13{fill:none;stroke:#3D3D3D;stroke-width:5;stroke-miterlimit:10;stroke-dasharray:10,7,10,7,10,7;}
	.st14{fill:none;stroke:#F1C40F;stroke-width:6;stroke-miterlimit:10;stroke-dasharray:15,20,15,20,15,20;}
	.st15{fill:#29373C;}
	.st16{fill:#F7F9F9;}
	.st17{fill:#CCD1D3;}
	.st18{opacity:0.1;fill:#0071BC;}
	.st19{fill:none;stroke:#F1C40F;stroke-width:4;stroke-linecap:round;stroke-miterlimit:10;}
	.st20{fill:#F1C40F;}
	.st21{fill:none;stroke:#CCD1D3;stroke-width:2;stroke-miterlimit:10;stroke-dasharray:3,2,3,2,3,2;}
	.st22{fill:#CCCCCC;}
	.st23{fill:none;stroke:#CE242B;stroke-width:5;stroke-miterlimit:10;}
	.st24{fill:none;stroke:#CE242B;stroke-width:10;stroke-miterlimit:10;}
	.st25{fill:none;}
	.st26{fill:url(#SVGID_2_);}
	.st27{fill:url(#SVGID_3_);}
	.st28{fill:url(#SVGID_4_);}
	.st29{fill:url(#SVGID_5_);}
	.st30{fill:url(#SVGID_6_);}
	.st31{fill:url(#SVGID_7_);}
	.st32{fill:url(#SVGID_8_);}
	.st33{fill:url(#SVGID_9_);}
	.st34{fill:url(#SVGID_10_);}
	.st35{fill:url(#SVGID_11_);}
	.st36{fill:url(#SVGID_12_);}
	.st37{fill:url(#SVGID_13_);}
	.st38{fill:url(#SVGID_14_);}
	.st39{fill:url(#SVGID_15_);}
	.st40{fill:url(#SVGID_16_);}
	.st41{fill:url(#SVGID_17_);}
	.st42{fill:url(#SVGID_18_);}
	.st43{fill:url(#SVGID_19_);}
	.st44{fill:url(#SVGID_20_);}
	.st45{fill:url(#SVGID_21_);}
	.st46{fill:url(#SVGID_22_);}
	.st47{fill:url(#SVGID_23_);}
	.st48{fill:url(#SVGID_24_);}
	.st49{fill:url(#SVGID_25_);}
	.st50{fill:url(#SVGID_26_);}
	.st51{fill:none;stroke:#3D3D3D;stroke-width:7;stroke-miterlimit:10;}
	.st52{fill:url(#);stroke:#3D3D3D;stroke-width:7;stroke-miterlimit:10;}
	.st53{fill:#FFFFFF;stroke:#3D3D3D;stroke-width:7;stroke-miterlimit:10;}
	.st54{fill:#FFFFFF;stroke:#3D3D3D;stroke-width:5;stroke-miterlimit:10;}
	.st55{opacity:0.3;}
	.st56{fill:#8B8B8B;}
	.st57{fill:#FFFFFF;stroke:#3D3D3D;stroke-width:2;stroke-miterlimit:10;}
	.st58{fill:#2ECC71;}
	.st59{fill:none;stroke:#CCD1D3;stroke-miterlimit:10;stroke-dasharray:2,1,2,1,2,1;}
	.st60{fill:#A3ABAF;}
	.st61{fill:#3498DB;}
	.st62{fill:#2980B9;}
	.st63{fill:#E67E22;}
	.st64{fill:#D35401;}
	.st65{fill:#E49701;}
	.st66{fill:#EADF5A;}
	.st67{fill:#D7C320;}
	.st68{fill:#34495E;}
	.st69{fill:#2C3E50;}
	.st70{fill:#2B2B2B;}
	.st71{fill:#262626;}
	.st72{fill:#3A6F81;}
	.st73{fill:#356272;}
	.st74{fill:#00558B;}
	.st75{fill:#27AE60;}
	.st76{fill:#A5C63B;}
	.st77{fill:#8EB021;}
	.st78{fill:#ECF0F1;}
	.st79{fill:#BDC3C7;}
	.st80{fill:#95A5A6;}
	.st81{fill:#7F8C8D;}
	.st82{fill:#E74C3C;}
	.st83{fill:#C0392B;}
	.st84{fill:#F15354;}
	.st85{fill:#EA3738;}
	.st86{fill:#78C9CF;}
	.st87{fill:#389EA8;}
	.st88{fill:#2D8490;}
	.st89{fill:#1A6470;}
	.st90{fill:#21364A;}
	.st91{fill:#040B15;}
	.st92{fill:#99A3A8;}
	.st93{fill:#66767C;}
	.st94{fill:#334851;}
	.st95{fill:#5C686F;}
	.st96{fill:#0A141A;}
	.st97{fill:none;stroke:#F1C40F;stroke-width:2;stroke-miterlimit:10;}
	.st98{fill:none;stroke:#D35401;stroke-width:5;stroke-linecap:round;stroke-linejoin:round;stroke-miterlimit:10;}
	.st99{fill:#E6E6E6;}
	.st100{fill:#006BB7;}
	.st101{fill:#E5F1F8;}
	.st102{fill:#0C5988;}
	.st103{fill:#25343A;}
	.st104{fill:#DEEBF2;}
	.st105{fill:#B7C5CD;}
</style>
<g>
	<path class="st3" d="M159.4,119.6c-0.5-0.5-0.9-1.1-1.2-1.8c-0.3-0.7-0.4-1.3-0.4-2c0-0.7,0.1-1.4,0.4-2c0.3-0.7,0.7-1.3,1.2-1.8
		c0.5-0.5,1.1-1,1.8-1.3s1.4-0.4,2-0.5c0.7,0,1.4,0.1,2,0.4c0.7,0.3,1.3,0.6,1.8,1.2c0.5,0.5,0.9,1.1,1.2,1.8c0.3,0.7,0.4,1.3,0.4,2
		c0,0.7-0.1,1.4-0.4,2.1c-0.3,0.7-0.7,1.3-1.2,1.8c-0.5,0.5-1.1,1-1.8,1.2s-1.3,0.4-2,0.4c-0.7,0-1.4-0.1-2-0.3
		C160.5,120.5,159.9,120.1,159.4,119.6z"/>
	<path class="st3" d="M199.7,95.8c0.2-0.1,0.3-0.2,0.5-0.3c0.2-0.1,0.4-0.1,0.7,0l4.7,0.9c-0.1,2.4-0.7,4.6-1.9,6.6
		c-1.2,2-3,3.9-5.4,5.7c-2.2,1.6-4.4,2.6-6.7,3.1c-2.3,0.5-4.5,0.5-6.7,0.1c-2.2-0.4-4.2-1.3-6.2-2.7c-2-1.3-3.7-3.1-5.2-5.2
		c-1.6-2.2-2.6-4.4-3.2-6.7c-0.6-2.3-0.7-4.6-0.4-6.8s1.1-4.3,2.4-6.4c1.2-2,2.9-3.8,5.1-5.3c1.1-0.8,2.2-1.4,3.3-1.9
		c1.1-0.5,2.2-0.9,3.3-1.2s2.1-0.4,3.2-0.4c1,0,2,0,3,0.2l-0.1,4.7c0,0.3-0.1,0.6-0.2,0.9c-0.1,0.3-0.3,0.6-0.7,0.8
		c-0.2,0.2-0.5,0.3-0.8,0.3c-0.3,0-0.6,0.1-1,0.1c-0.3,0-0.7,0-1.1,0.1c-0.4,0-0.9,0.1-1.4,0.2c-0.5,0.1-1.1,0.3-1.7,0.6
		s-1.2,0.7-2,1.2c-1.1,0.8-2,1.7-2.6,2.8s-1,2.2-1.1,3.5c-0.1,1.3,0.1,2.6,0.5,4s1.2,2.8,2.3,4.3c1.1,1.5,2.2,2.7,3.5,3.5
		c1.2,0.9,2.5,1.4,3.8,1.7s2.5,0.3,3.7,0c1.2-0.3,2.4-0.8,3.4-1.5c0.6-0.4,1.1-0.9,1.6-1.3c0.5-0.4,0.9-0.9,1.2-1.3
		c0.3-0.5,0.6-0.9,0.8-1.4c0.2-0.5,0.4-1.1,0.5-1.7c0.1-0.2,0.2-0.5,0.3-0.7C199.3,96.1,199.5,95.9,199.7,95.8z"/>
	<path class="st3" d="M239.5,68.1c1,2.4,1.5,4.8,1.5,7.2c0,2.4-0.4,4.7-1.3,6.8c-0.9,2.1-2.2,4.1-4,5.8c-1.8,1.7-3.9,3.1-6.5,4.1
		c-2.6,1-5.1,1.6-7.6,1.6s-4.8-0.5-6.9-1.4c-2.1-0.9-4-2.2-5.7-3.9c-1.7-1.7-3-3.8-3.9-6.2c-1-2.4-1.5-4.8-1.5-7.2
		c0-2.4,0.4-4.7,1.3-6.8c0.9-2.1,2.2-4,4-5.8c1.8-1.7,3.9-3.1,6.5-4.2c2.6-1,5.1-1.6,7.6-1.5c2.5,0,4.8,0.5,6.9,1.4
		c2.1,0.9,4,2.2,5.7,3.9C237.2,63.6,238.5,65.7,239.5,68.1z M231.6,71.2c-0.7-1.6-1.5-3-2.4-4.2s-2-2-3.2-2.6
		c-1.2-0.6-2.4-0.9-3.8-0.9s-2.8,0.3-4.2,0.9c-1.5,0.6-2.7,1.4-3.7,2.3c-1,1-1.7,2-2.1,3.3s-0.6,2.6-0.5,4.1c0.1,1.5,0.5,3,1.2,4.7
		c0.7,1.6,1.5,3,2.4,4.2s2,2,3.2,2.6c1.2,0.6,2.4,0.9,3.8,0.9c1.4,0,2.8-0.3,4.3-0.9c1.5-0.6,2.7-1.4,3.6-2.3c1-0.9,1.6-2,2.1-3.3
		c0.4-1.2,0.6-2.6,0.5-4.1C232.7,74.5,232.3,72.9,231.6,71.2z"/>
	<path class="st3" d="M280.4,43.8l4.3,35.4l-4.3,0.5c-0.6,0.1-1.2,0-1.6-0.1c-0.5-0.2-0.9-0.5-1.4-0.9l-19.3-19.1
		c0.1,0.6,0.3,1.2,0.4,1.8c0.1,0.6,0.2,1.1,0.2,1.7l2.3,19l-7.2,0.9l-4.3-35.4l4.3-0.5c0.4,0,0.7-0.1,0.9-0.1s0.5,0,0.7,0.1
		c0.2,0.1,0.4,0.2,0.6,0.3c0.2,0.1,0.4,0.3,0.7,0.6l19.4,19.2c-0.2-0.7-0.3-1.3-0.4-2s-0.2-1.2-0.3-1.8l-2.3-18.8L280.4,43.8z"/>
	<path class="st3" d="M330.8,48.1l-18.7,33.6l-7.4-0.9L295,43.6l6.6,0.8c0.7,0.1,1.3,0.3,1.7,0.7c0.4,0.4,0.7,0.9,0.8,1.4l4.5,19.8
		c0.2,0.9,0.4,1.8,0.6,2.8c0.2,1,0.3,2.1,0.5,3.2c0.4-1,0.7-2,1.2-3c0.4-0.9,0.8-1.8,1.3-2.6l9.2-18.1c0.2-0.4,0.6-0.8,1.1-1.1
		s1.1-0.4,1.8-0.3L330.8,48.1z"/>
	<path class="st3" d="M369.8,80.9c-0.9,2.4-2.2,4.5-3.9,6.2c-1.6,1.7-3.5,3.1-5.6,4c-2.1,0.9-4.4,1.4-6.8,1.5s-5-0.4-7.6-1.5
		s-4.8-2.4-6.6-4.1c-1.8-1.7-3.1-3.6-4.1-5.7s-1.4-4.4-1.4-6.8c0-2.4,0.4-4.8,1.4-7.2c0.9-2.4,2.2-4.5,3.9-6.2
		c1.6-1.7,3.5-3.1,5.6-4c2.1-0.9,4.4-1.4,6.9-1.4s5,0.5,7.6,1.5c2.6,1,4.8,2.4,6.5,4.1s3.1,3.6,4,5.7c0.9,2.1,1.4,4.4,1.4,6.8
		C371.2,76.1,370.8,78.5,369.8,80.9z M361.9,77.8c0.6-1.6,1-3.2,1.1-4.7c0.1-1.5-0.1-2.8-0.5-4.1c-0.4-1.2-1.1-2.3-2.1-3.2
		c-1-0.9-2.2-1.7-3.7-2.3c-1.5-0.6-2.9-0.9-4.3-0.8c-1.4,0-2.6,0.3-3.8,0.9c-1.2,0.6-2.2,1.5-3.1,2.6c-0.9,1.1-1.7,2.5-2.4,4.2
		c-0.6,1.7-1,3.2-1.1,4.7c-0.1,1.5,0.1,2.8,0.5,4.1s1.2,2.3,2.1,3.2c1,0.9,2.2,1.7,3.7,2.3c1.5,0.6,2.9,0.9,4.2,0.8
		c1.3,0,2.6-0.3,3.7-0.9s2.2-1.5,3.1-2.6C360.5,80.9,361.3,79.5,361.9,77.8z"/>
	<path class="st3" d="M389.8,99.4l-7.7,11.1l-6.8-4.7l7.7-11.1l2-25.6l6,4.2c0.6,0.4,1,0.9,1.1,1.4c0.2,0.5,0.2,1.1,0.1,1.7
		l-1.8,11.4c-0.1,0.9-0.2,1.8-0.4,2.5c-0.1,0.8-0.3,1.5-0.5,2.2c0.6-0.4,1.2-0.9,1.9-1.3c0.7-0.4,1.4-0.8,2.2-1.2l10-5.7
		c0.2-0.1,0.5-0.2,0.7-0.3c0.3-0.1,0.5-0.1,0.8-0.1c0.3,0,0.6,0,0.9,0.1s0.6,0.2,0.9,0.4l6,4.2L389.8,99.4z"/>
	<path class="st3" d="M407.7,109.6c0.5-0.5,1.1-0.9,1.8-1.2s1.3-0.4,2-0.4c0.7,0,1.4,0.1,2,0.4c0.7,0.3,1.3,0.7,1.8,1.2
		s1,1.1,1.3,1.8s0.4,1.4,0.5,2c0,0.7-0.1,1.4-0.4,2s-0.6,1.3-1.2,1.8s-1.1,0.9-1.8,1.2c-0.7,0.3-1.3,0.4-2,0.4
		c-0.7,0-1.4-0.1-2.1-0.4c-0.7-0.3-1.3-0.7-1.8-1.2s-1-1.1-1.2-1.8s-0.4-1.3-0.4-2c0-0.7,0.1-1.4,0.3-2S407.2,110.1,407.7,109.6z"/>
	<path class="st99" d="M117,357c-23.3-33.7-37-74.5-37-118.5C80,123.5,173.5,30,288.5,30S497,123.5,497,238.5
		c0,44-13.7,84.8-37,118.5h12.2c22.7-35,34.9-75.8,34.9-118.5c0-58.4-22.7-113.2-64-154.5s-96.1-64-154.5-64S175.3,42.7,134,84
		s-64,96.1-64,154.5c0,42.7,12.2,83.5,34.9,118.5H117z"/>
	<path class="st99" d="M207.7,357h19.4c-42.8-22.3-72.1-67-72.1-118.5c0-73.6,59.9-133.5,133.5-133.5S422,164.9,422,238.5
		c0,51.5-29.3,96.2-72.1,118.5h19.4c37.8-25.9,62.7-69.3,62.7-118.5C432,159.4,367.6,95,288.5,95S145,159.4,145,238.5
		C145,287.7,169.9,331.1,207.7,357z"/>
	<path class="st7" d="M416.7,188.8l-7.3-43.7c-2.3-14-8.3-25.5-12.7-25.5c-4.3,0-8.4,11.6-8.4,25.8v11.4c0,14.2-10.5,24.9-24.7,24.9
		h-11.4c-0.8,0-1.9,1-4.5,1V214c2.6,0,3.7,0.4,4.5,0.4h42.9C409.3,214.4,419,202.8,416.7,188.8"/>
	<path class="st7" d="M163.6,188.6l7.3-43.6c2.3-14,8.4-25.4,12.7-25.4c4.3,0,8.4,11.6,8.4,25.8v11.4c0,14.2,10.5,25.2,24.7,25.2
		h11.4c0.8,0,1.9,0.6,2.9,0.7V214c-1,0-2.1,0-2.9,0h-42.9C171,214,161.3,202.6,163.6,188.6z"/>
	<path class="st8" d="M350,327c0,6.1-4.9,11-11,11H239c-6.1,0-11-4.9-11-11V162c0-6.1,4.9-11,11-11h100c6.1,0,11,4.9,11,11V327"/>
	<path class="st15" d="M233.1,213.8c26.2-15.9,64.7-12.8,85.3-9.6c19,3,31.6,9.9,41.6,20.7v-28.4c0-34.1-7.3-61.7-70-61.7
		c-61.7,0-70,27.6-70,61.7V225C223,220.6,228.1,216.8,233.1,213.8"/>
	<path class="st16" d="M292.4,128.4c-1.3-0.4-3.2-0.4-4.5,0c-45.2,13-59.9,5.9-59.9,68.1V217c0-0.5,1.5-1.1,2.3-1.6l-1.1,1.6
		c16.6-12.2,41-14.9,60.7-15.4c19.7,0.5,44.2,3.2,60.7,15.4l-1.6-1.6c0.8,0.5,1.8,1,1.8,1.6v-20.5
		C351,134.3,337.6,141.4,292.4,128.4"/>
	<path class="st17" d="M348.2,209.3h-2.4v-1.7h2.4V209.3 M348.2,205.3h-2.4v-3.6h2.4V205.3 M348.2,199.3h-2.4l0-3.6h2.4L348.2,199.3
		 M345.8,193.4c0-1.2,0-2.4,0-3.6l2.4,0c0,1.2,0,2.4,0,3.6L345.8,193.4 M345.8,187.4c0-1.2-0.1-2.4-0.1-3.6l2.4-0.1
		c0,1.2,0.1,2.4,0.1,3.6L345.8,187.4 M345.6,181.5c-0.1-1.2-0.1-2.4-0.2-3.5l2.4-0.2c0.1,1.2,0.2,2.4,0.2,3.6L345.6,181.5
		 M345.2,175.6c-0.1-1.2-0.2-2.4-0.4-3.5l2.4-0.3c0.1,1.2,0.3,2.4,0.4,3.6L345.2,175.6 M344.5,169.7c-0.2-1.2-0.4-2.3-0.6-3.5
		l2.3-0.4c0.2,1.2,0.4,2.4,0.6,3.6L344.5,169.7 M343.5,163.9c-0.3-1.2-0.5-2.3-0.9-3.4l2.3-0.6c0.3,1.1,0.6,2.3,0.9,3.5L343.5,163.9
		 M342,158.3c-0.4-1.1-0.8-2.2-1.2-3.3l2.2-0.9c0.5,1.1,0.9,2.2,1.3,3.4L342,158.3 M339.8,152.9c-0.5-1.1-1.1-2.1-1.7-3l2-1.3
		c0.6,1,1.2,2.1,1.8,3.2L339.8,152.9 M336.9,147.9c-0.7-0.9-1.4-1.8-2.2-2.7l1.8-1.6c0.8,0.9,1.6,1.9,2.4,2.9L336.9,147.9
		 M333.1,143.7c-0.8-0.8-1.7-1.5-2.7-2.1l1.4-2c1,0.7,2,1.5,2.9,2.3L333.1,143.7 M328.5,140.3c-1-0.6-2-1.1-3.1-1.5l0.9-2.2
		c1.2,0.5,2.3,1,3.3,1.6L328.5,140.3 M323.3,138c-1.1-0.4-2.2-0.7-3.3-0.9l0.5-2.3c1.2,0.3,2.4,0.6,3.6,1L323.3,138"/>
	<path class="st17" d="M234.8,209.3h-2.4v-1.7h2.4V209.3z M234.8,205.3h-2.4v-3.6h2.4V205.3z M234.8,199.3h-2.4l0-3.6l2.4,0
		L234.8,199.3z M234.8,193.4l-2.4,0c0-1.2,0-2.4,0-3.6l2.4,0C234.8,191,234.8,192.2,234.8,193.4z M234.9,187.4l-2.4,0
		c0-1.2,0.1-2.4,0.1-3.6l2.4,0.1C234.9,185,234.9,186.2,234.9,187.4z M235.1,181.5l-2.4-0.1c0.1-1.2,0.1-2.4,0.2-3.6l2.4,0.2
		C235.2,179.1,235.1,180.3,235.1,181.5z M235.4,175.6l-2.4-0.2c0.1-1.2,0.2-2.4,0.4-3.6l2.4,0.3
		C235.7,173.2,235.5,174.4,235.4,175.6z M236.1,169.7l-2.4-0.3c0.2-1.2,0.4-2.4,0.6-3.6l2.3,0.4
		C236.5,167.4,236.3,168.5,236.1,169.7z M237.2,163.9l-2.3-0.5c0.3-1.2,0.6-2.4,0.9-3.5l2.3,0.6
		C237.7,161.6,237.4,162.7,237.2,163.9z M238.7,158.3l-2.3-0.7c0.4-1.2,0.8-2.3,1.3-3.4l2.2,0.9C239.5,156,239.1,157.1,238.7,158.3z
		 M240.9,152.9l-2.1-1c0.5-1.1,1.1-2.2,1.8-3.2l2,1.3C241.9,150.8,241.4,151.8,240.9,152.9z M243.8,147.9l-1.9-1.4
		c0.7-1,1.5-2,2.4-2.9l1.8,1.6C245.2,146.1,244.5,147,243.8,147.9z M247.6,143.7l-1.6-1.8c0.9-0.8,1.9-1.6,2.9-2.3l1.4,2
		C249.3,142.2,248.4,142.9,247.6,143.7z M252.2,140.3l-1.2-2.1c1.1-0.6,2.2-1.2,3.3-1.6l0.9,2.2
		C254.2,139.3,253.1,139.8,252.2,140.3z M257.4,138l-0.8-2.3c1.1-0.4,2.3-0.7,3.6-1l0.5,2.3C259.6,137.4,258.4,137.7,257.4,138z"/>
	<path class="st100" d="M290,212.3c-11.1,0-21.1,1.1-29.4,2.6c-0.4,0.1-0.8,0.1-1.2,0.2c32.4,6.3,90.6,28.8,90.6,109V223.3
		C328,215,307.5,212.3,290,212.3"/>
	<path class="st20" d="M227.8,304.1c-0.5,0-1-0.2-1.4-0.6c-0.8-0.8-0.8-2,0-2.8c14.4-14.6,32.8-17.7,45.7-17.7c1.1,0,2,0.9,2,2
		s-0.9,2-2,2c-12.1,0-29.4,2.9-42.8,16.5C228.8,303.9,228.3,304.1,227.8,304.1z"/>
	<path class="st15" d="M367.9,224.6c-9.8-12.1-25.4-19.9-46.6-23.3c-22.5-3.5-64.6-6.8-93.5,10.7c-5.2,3.1-9.9,7.3-14.4,12.7
		c-1,1.2-1,2.8,0,4c0.6,0.7,1.5,1.1,2.4,1.1c0.5,0,1.1-0.1,1.6-0.4c0.2-0.1,16.9-9.7,43.2-14.4c24.3-4.4,61.9-5.4,103.6,14.4
		c1.3,0.6,2.9,0.3,3.8-0.9S368.8,225.7,367.9,224.6"/>
	<path class="st20" d="M227.3,306.9c-0.4,0.8-3.1,3.3-3.5,3.6l0-0.1c-0.1-0.6-0.4-4.3,0-5.2c0.4-0.9,1.6-1.4,2.5-0.9
		C227.3,304.8,227.7,306,227.3,306.9z M221.6,307.4c-0.1,0-0.1,0-0.2,0l-2.3-2.9c0.8-0.5,1.6-0.8,1.9-0.9c1.1-0.1,2,0.6,2.1,1.7
		C223.3,306.4,222.6,307.3,221.6,307.4z"/>
	<path class="st20" d="M216.9,311.3c1-0.2,1.7-1.2,1.5-2.2c-0.2-1-1.2-1.8-2.2-1.6c-0.5,0.1-1.7,0.8-2.7,1.5c-1,0.7-1.8,1.4-1.8,1.4
		s1.1,0.2,2.2,0.5C215.1,311.1,216.4,311.4,216.9,311.3z M216.4,306.3c0,0,1.4-1,2.7-1.8l2.3,2.9c-0.6,0-1.9-0.3-3-0.6
		C217.4,306.5,216.4,306.3,216.4,306.3z M218.1,314.2c-0.3,0.9-2.7,3.6-3,4l0,0c-0.2-0.6-0.8-4.2-0.6-5.1c0.3-1,1.3-1.6,2.4-1.2
		C217.9,312.2,218.4,313.2,218.1,314.2z M222.6,310.4c-0.2,0.5-1,1.4-1.8,2.3c-0.8,0.8-1.5,1.5-1.5,1.5s-0.2-1-0.3-2.2
		c-0.1-1.2-0.2-2.5,0-3c0.3-1,1.5-1.5,2.4-1.1C222.5,308.4,223,309.5,222.6,310.4z M212.5,315.4c-0.1,0-0.1,0-0.2,0l-2.6-2.6
		c0.7-0.6,1.5-1,1.9-1.1c1-0.3,2.1,0.4,2.3,1.4C214.2,314.1,213.5,315.1,212.5,315.4z"/>
	<path class="st20" d="M208.4,319.8c1-0.4,1.5-1.4,1.2-2.4c-0.3-1-1.4-1.6-2.4-1.3c-1,0.3-4.1,3.6-4.1,3.6s1.1,0.1,2.3,0.2
		C206.6,319.9,207.9,320,208.4,319.8z M207.3,314.9c0,0,1.3-1.2,2.5-2.1l2.6,2.6c-0.6,0.1-1.9-0.1-3-0.2
		C208.3,315.1,207.3,314.9,207.3,314.9z M210,322.6c-0.1,0.5-0.6,1.4-1.2,2.3c-0.5,0.9-1.1,1.8-1.2,2l-0.1,0c-0.2-0.5-1.5-4-1.3-5
		c0.2-1,1.2-1.7,2.2-1.5C209.5,320.6,210.2,321.6,210,322.6z M213.9,318.3c-0.1,0.5-0.8,1.5-1.5,2.4c-0.7,0.9-1.3,1.7-1.3,1.7
		s-0.3-1-0.6-2.2c-0.3-1.2-0.5-2.4-0.3-3c0.2-1,1.3-1.6,2.3-1.4C213.5,316.2,214.1,317.3,213.9,318.3z M204.7,324.5c0,0-0.1,0-0.2,0
		l-3-2.2c0.7-0.7,1.3-1.2,1.7-1.4c1-0.4,2.1,0.1,2.5,1.1C206,323,205.6,324.1,204.7,324.5z"/>
	<path class="st20" d="M201.2,329.5c0.9-0.5,1.3-1.6,0.8-2.5c-0.5-1-1.6-1.4-2.6-0.9c-0.5,0.2-1.4,1.3-2.2,2.2
		c-0.7,1-1.3,1.9-1.3,1.9s1.1-0.1,2.3-0.2C199.4,329.8,200.7,329.7,201.2,329.5z M199.3,324.8c0,0,0.3-0.3,0.7-0.8
		c0.4-0.5,1-1.1,1.5-1.6l3,2.2c-0.6,0.2-1.9,0.2-3,0.2C200.3,324.8,199.3,324.8,199.3,324.8z M203.2,331.9c0,1-1.5,4.2-1.7,4.6
		l-0.1,0c-0.3-0.5-2-3.7-2-4.7c0-1.1,0.8-1.9,1.9-1.8C202.4,330.1,203.2,330.9,203.2,331.9z M206.4,327.1c-0.1,0.5-0.6,1.6-1.1,2.6
		c-0.5,1-1,1.9-1,1.9s-0.5-0.9-0.9-2.1c-0.4-1.1-0.8-2.4-0.8-2.9c0-1.1,1-1.8,2.1-1.7C205.7,325.2,206.5,326.1,206.4,327.1z"/>
	<path class="st101" d="M360.9,214.4H360v2.2c3,2.4,5.6,5,7.9,7.9c0.9,1.1,0.9,2.7,0,3.9c-0.4,0.5-0.9,0.9-1.5,1c0.2,0,0.4,0,0.6,0
		c0.9,0,1.8-0.4,2.4-1.2c0.9-1.1,0.9-2.7,0-3.9c-2.4-3-5.3-5.8-8.5-8.3V214.4 M327.4,137.1c0.8,0.4,1.5,0.7,2.2,1.1l-0.2,0.4
		c0.8,0.3,1.5,0.6,2.3,1l0-0.1c0.1,0.1,0.3,0.2,0.4,0.3c3.5,1.7,6.4,3.7,8.9,6.4c12.2,8.4,16.8,20.9,18.3,35.4h0.9
		c-1.4-13-5.2-24.5-14.9-32.8C341.3,143,335.5,139.7,327.4,137.1 M323.9,136l-0.2,0.6c0.8,0.2,1.5,0.5,2.3,0.7l0.3-0.7
		C325.5,136.5,324.7,136.3,323.9,136 M292,128c0,0-0.1,0-0.1,0c0,0.1,0,0.2,0,0.2c0.2,0,0.4,0.1,0.6,0.1c11.1,3.2,20.3,5.2,27.9,7.3
		l0.1-0.6c-7.2-1.9-15.8-3.8-26-6.8C293.7,128.1,292.8,128,292,128"/>
	<path class="st102" d="M360.2,181.7h-0.9c0.5,4.8,0.7,9.7,0.7,14.9v17.9h0.9v-18C360.9,191.4,360.7,186.4,360.2,181.7"/>
	<path class="st103" d="M341,146.3c7.2,8.1,10,22,10,50.2v14.2c3.3,1.8,6.3,3.8,9,6v-2.2v-17.9c0-5.1-0.2-10.1-0.7-14.9
		C357.8,167.2,353.3,154.7,341,146.3"/>
	<path class="st104" d="M345.8,205.3v-3.6h2.4v3.6H345.8 M345.8,199.3l0-3.6h2.4l0,3.6H345.8 M345.8,193.4c0-1.2,0-2.4,0-3.6l2.4,0
		c0,1.2,0,2.4,0,3.6L345.8,193.4 M345.8,187.4c0-1.2-0.1-2.4-0.1-3.6l2.4-0.1c0,1.2,0.1,2.4,0.1,3.6L345.8,187.4 M345.6,181.5
		c-0.1-1.2-0.1-2.4-0.2-3.5l2.4-0.2c0.1,1.2,0.2,2.4,0.2,3.6L345.6,181.5 M345.2,175.6c-0.1-1.2-0.2-2.4-0.4-3.5l2.4-0.3
		c0.1,1.2,0.3,2.4,0.4,3.6L345.2,175.6 M344.5,169.7c-0.2-1.2-0.4-2.3-0.6-3.5l2.3-0.4c0.2,1.2,0.4,2.4,0.6,3.6L344.5,169.7
		 M343.5,163.9c-0.3-1.2-0.5-2.3-0.9-3.4l2.3-0.6c0.3,1.1,0.6,2.3,0.9,3.5L343.5,163.9 M342,158.3c-0.4-1.1-0.8-2.2-1.2-3.3l2.2-0.9
		c0.5,1.1,0.9,2.2,1.3,3.4L342,158.3 M339.8,152.9c-0.5-1.1-1.1-2.1-1.7-3l2-1.3c0.6,1,1.2,2.1,1.8,3.2L339.8,152.9 M336.9,147.9
		c-0.7-0.9-1.4-1.8-2.2-2.7l1.8-1.6c0.8,0.9,1.6,1.9,2.4,2.9L336.9,147.9 M291.8,128.3c0.2,15.6,0.4,45.1,0.3,70.3
		c11.2,0.3,21.3,1.5,29.2,2.7c9.2,1.4,17.4,3.8,24.5,6.9v-0.5h2.4v1.6c0.9,0.5,1.9,0.9,2.8,1.4v-14.2c0-28.2-2.8-42.2-10-50.2
		c-2.4-2.7-5.4-4.7-8.9-6.4c0.9,0.6,1.7,1.3,2.5,2l-1.6,1.8c-0.8-0.8-1.7-1.5-2.7-2.1l1.3-1.9c-0.7-0.3-1.5-0.7-2.3-1l-1,1.7
		c-1-0.6-2-1.1-3.1-1.5l0.6-1.4c-0.7-0.3-1.5-0.5-2.3-0.7l-0.4,1.3c-1.1-0.4-2.2-0.7-3.3-0.9l0.3-1.4c-7.5-2.1-16.7-4.1-27.9-7.3
		C292.2,128.3,292,128.3,291.8,128.3"/>
	<path class="st105" d="M348.2,207.7h-2.4v0.5c0.8,0.4,1.6,0.7,2.4,1.1V207.7 M348.2,201.7h-2.4v3.6h2.4V201.7 M348.2,195.7h-2.4
		l0,3.6h2.4L348.2,195.7 M348.2,189.8l-2.4,0c0,1.2,0,2.4,0,3.6l2.4,0C348.2,192.2,348.2,191,348.2,189.8 M348.1,183.8l-2.4,0.1
		c0,1.2,0.1,2.4,0.1,3.6l2.4,0C348.1,186.2,348.1,185,348.1,183.8 M347.8,177.7l-2.4,0.2c0.1,1.2,0.1,2.4,0.2,3.5l2.4-0.1
		C347.9,180.1,347.8,178.9,347.8,177.7 M347.2,171.7l-2.4,0.3c0.1,1.2,0.3,2.3,0.4,3.5l2.4-0.2C347.5,174.1,347.4,172.9,347.2,171.7
		 M346.3,165.8l-2.3,0.4c0.2,1.1,0.4,2.3,0.6,3.5l2.4-0.3C346.7,168.1,346.5,166.9,346.3,165.8 M344.9,159.8l-2.3,0.6
		c0.3,1.1,0.6,2.2,0.9,3.4l2.3-0.5C345.6,162.2,345.3,161,344.9,159.8 M342.9,154.1l-2.2,0.9c0.4,1,0.8,2.1,1.2,3.3l2.3-0.7
		C343.8,156.3,343.4,155.2,342.9,154.1 M340.2,148.6l-2,1.3c0.6,1,1.1,2,1.7,3l2.1-1C341.4,150.7,340.8,149.6,340.2,148.6
		 M336.4,143.7l-1.8,1.6c0.8,0.8,1.5,1.7,2.2,2.7l1.9-1.4C338.1,145.5,337.3,144.6,336.4,143.7 M331.8,139.6L331.8,139.6l-1.4,2
		c0.9,0.6,1.8,1.4,2.7,2.1l1.6-1.8c-0.8-0.7-1.6-1.4-2.5-2C332,139.8,331.9,139.7,331.8,139.6 M326.3,136.7l-0.3,0.7l-0.6,1.4
		c1.1,0.4,2.1,1,3.1,1.5l1-1.7l0.2-0.4c-0.7-0.4-1.5-0.8-2.2-1.1C327.1,137,326.7,136.9,326.3,136.7 M320.4,135.1l-0.1,0.6l-0.3,1.4
		c1.1,0.3,2.3,0.6,3.3,0.9l0.4-1.3l0.2-0.6C322.8,135.7,321.6,135.4,320.4,135.1"/>
	<path class="st103" d="M292.2,198.6c0,4.8,0,9.4,0,13.7c21.1,0.1,46.4,4.1,73.5,17c0.3,0.1,0.5,0.2,0.8,0.3c0.6-0.2,1.1-0.5,1.5-1
		c0.9-1.1,0.9-2.7,0-3.9c-2.3-2.9-4.9-5.5-7.9-7.9c-2.7-2.2-5.7-4.2-9-6c-0.9-0.5-1.8-1-2.8-1.4c-0.8-0.4-1.6-0.7-2.4-1.1
		c-7.1-3.1-15.3-5.5-24.5-6.9C313.5,200.1,303.3,198.9,292.2,198.6"/>
	<path class="st20" d="M428.7,338.8l4.9,3.5c3-4.1,5.8-8.4,8.4-12.8l-5.2-3.1C434.3,330.7,431.6,334.8,428.7,338.8z"/>
	<path class="st20" d="M454.5,172.9c-1.9-4.7-4-9.4-6.2-13.9l-5.4,2.7c2.2,4.4,4.2,8.9,6,13.5L454.5,172.9z"/>
	<path class="st20" d="M419.6,357l-3.2-2.9c-0.9,1-1.8,1.9-2.7,2.9H419.6z"/>
	<path class="st20" d="M438.2,141.4c-2.8-4.2-5.7-8.4-8.9-12.4l-4.7,3.7c3,3.9,5.9,7.9,8.6,12L438.2,141.4z"/>
	<path class="st20" d="M464.2,207.1c-0.9-5-2-10-3.3-14.9l-5.8,1.6c1.3,4.7,2.3,9.6,3.2,14.4L464.2,207.1z"/>
	<path class="st20" d="M445.9,309.1l5.5,2.5c2.1-4.6,4-9.4,5.7-14.2l-5.7-2C449.7,300,447.9,304.6,445.9,309.1z"/>
	<path class="st20" d="M461,238.5c0,1.3,0,2.6,0,3.9l6,0.1c0-1.3,0-2.7,0-4.1c0-3.7-0.1-7.5-0.3-11.2l-6,0.4
		C460.9,231.3,461,234.9,461,238.5z"/>
	<path class="st20" d="M465.4,262.8l-5.9-0.8c-0.7,4.8-1.5,9.7-2.6,14.5l5.9,1.3C463.8,272.9,464.7,267.8,465.4,262.8z"/>
	<path class="st20" d="M163.3,357c-1.3-1.3-2.5-2.7-3.7-4l-4.5,4l0.1,0.1H163.3z"/>
	<path class="st20" d="M122.3,192.3l-5.8-1.6c-1.4,4.9-2.5,9.9-3.5,14.9l5.9,1.1C119.8,201.9,121,197,122.3,192.3z"/>
	<path class="st20" d="M116,240.9c0-0.8,0-1.6,0-2.4c0-4.1,0.1-8.3,0.4-12.3l-6-0.4c-0.3,4.2-0.5,8.5-0.5,12.8c0,0.8,0,1.7,0,2.5
		L116,240.9z"/>
	<path class="st20" d="M134.8,160.3l-5.3-2.7c-2.3,4.5-4.4,9.2-6.3,13.9l5.6,2.3C130.5,169.2,132.5,164.7,134.8,160.3z"/>
	<path class="st20" d="M142.4,341l4.9-3.5c-2.8-4-5.5-8.2-8-12.4l-5.2,3C136.8,332.6,139.5,336.9,142.4,341z"/>
	<path class="st20" d="M130.5,307.7c-2-4.5-3.8-9.1-5.3-13.7l-5.7,1.9c1.6,4.8,3.5,9.6,5.5,14.2L130.5,307.7z"/>
	<path class="st20" d="M111.4,261.3c0.6,5,1.5,10.1,2.6,15l5.9-1.3c-1-4.8-1.9-9.7-2.5-14.5L111.4,261.3z"/>
	<path class="st20" d="M152.4,132.7l-4.7-3.7c-2.8,3.6-5.5,7.3-8,11.1l5,3.3C147.1,139.7,149.7,136.1,152.4,132.7z"/>
	<rect x="64" y="352" class="st99" width="436" height="10"/>
	<rect x="64" y="447" class="st99" width="436" height="10"/>
	<path class="st11" d="M170.9,404.2h13.7v16.3c-2,1.4-4.1,2.5-6.3,3.2c-2.2,0.7-4.6,1-7,1c-3.2,0-6.1-0.5-8.7-1.5
		c-2.6-1-4.8-2.4-6.7-4.1c-1.9-1.8-3.3-3.8-4.3-6.3c-1-2.4-1.5-5-1.5-7.9c0-2.9,0.5-5.5,1.4-7.9c1-2.4,2.3-4.5,4.1-6.2
		s3.9-3.1,6.4-4.1s5.3-1.5,8.4-1.5c1.6,0,3.1,0.1,4.5,0.4c1.4,0.3,2.7,0.6,3.9,1.1c1.2,0.5,2.3,1,3.3,1.6c1,0.6,1.9,1.3,2.7,2.1
		l-2.6,3.9c-0.4,0.6-0.9,1-1.6,1.1c-0.6,0.1-1.3,0-2.1-0.5c-0.7-0.4-1.4-0.8-2-1.1c-0.6-0.3-1.3-0.6-1.9-0.8
		c-0.7-0.2-1.3-0.3-2.1-0.4c-0.7-0.1-1.5-0.1-2.4-0.1c-1.7,0-3.2,0.3-4.5,0.9c-1.3,0.6-2.5,1.4-3.4,2.5s-1.7,2.4-2.2,3.9
		c-0.5,1.5-0.8,3.2-0.8,5c0,2,0.3,3.9,0.8,5.5c0.6,1.6,1.4,2.9,2.4,4c1,1.1,2.3,1.9,3.7,2.5c1.4,0.6,3,0.9,4.8,0.9
		c1.1,0,2.1-0.1,2.9-0.3c0.9-0.2,1.7-0.5,2.6-0.8v-5.9h-3.8c-0.6,0-1-0.2-1.3-0.5c-0.3-0.3-0.5-0.7-0.5-1.1V404.2z"/>
	<polygon class="st11" points="219.2,417 219.2,424.2 195.9,424.2 195.9,385.6 204.9,385.6 204.9,417 	"/>
	<path class="st11" d="M244.4,417.1c1.2,0,2.3-0.2,3.2-0.6c0.9-0.4,1.7-1,2.4-1.7c0.7-0.7,1.2-1.6,1.5-2.7c0.3-1.1,0.5-2.3,0.5-3.6
		v-22.9h9v22.9c0,2.4-0.4,4.5-1.2,6.5c-0.8,2-1.9,3.7-3.3,5.1c-1.4,1.4-3.2,2.5-5.2,3.3c-2,0.8-4.4,1.2-6.9,1.2
		c-2.6,0-4.9-0.4-6.9-1.2c-2-0.8-3.8-1.9-5.2-3.3c-1.4-1.4-2.5-3.1-3.3-5.1c-0.8-2-1.1-4.2-1.1-6.5v-22.9h9v22.8
		c0,1.4,0.2,2.6,0.5,3.6c0.3,1.1,0.8,2,1.5,2.7c0.7,0.8,1.5,1.3,2.4,1.7C242.1,416.9,243.2,417.1,244.4,417.1z"/>
	<path class="st11" d="M294.6,393.4c-0.3,0.4-0.5,0.7-0.8,1c-0.3,0.2-0.7,0.3-1.1,0.3c-0.4,0-0.8-0.1-1.3-0.4
		c-0.5-0.3-1-0.5-1.6-0.9s-1.3-0.6-2-0.9c-0.8-0.3-1.6-0.4-2.6-0.4c-1.7,0-2.9,0.4-3.8,1.1c-0.8,0.7-1.2,1.7-1.2,2.9
		c0,0.8,0.2,1.4,0.7,1.9c0.5,0.5,1.1,1,1.9,1.3s1.7,0.7,2.8,1c1,0.3,2.1,0.7,3.2,1c1.1,0.4,2.1,0.8,3.2,1.3c1,0.5,2,1.2,2.8,2
		c0.8,0.8,1.5,1.8,1.9,2.9c0.5,1.1,0.7,2.5,0.7,4.1c0,1.8-0.3,3.5-0.9,5s-1.5,2.9-2.7,4.1c-1.2,1.2-2.6,2.1-4.3,2.7
		c-1.7,0.7-3.7,1-5.9,1c-1.2,0-2.4-0.1-3.7-0.4c-1.2-0.2-2.5-0.6-3.6-1s-2.3-1-3.3-1.6c-1-0.6-1.9-1.3-2.7-2.1l2.7-4.2
		c0.2-0.3,0.5-0.6,0.8-0.8c0.3-0.2,0.7-0.3,1.1-0.3c0.5,0,1.1,0.2,1.6,0.5c0.5,0.3,1.1,0.7,1.8,1.1c0.7,0.4,1.5,0.8,2.3,1.1
		c0.9,0.3,1.9,0.5,3.1,0.5c1.6,0,2.9-0.4,3.8-1.1c0.9-0.7,1.4-1.8,1.4-3.4c0-0.9-0.2-1.6-0.7-2.2c-0.5-0.6-1.1-1-1.9-1.4
		s-1.7-0.7-2.7-1c-1-0.3-2.1-0.6-3.2-0.9c-1.1-0.3-2.1-0.8-3.2-1.3c-1-0.5-1.9-1.2-2.7-2s-1.5-1.8-1.9-3.1c-0.5-1.2-0.7-2.7-0.7-4.5
		c0-1.4,0.3-2.9,0.9-4.2c0.6-1.4,1.4-2.6,2.6-3.7c1.1-1.1,2.5-1.9,4.2-2.6c1.6-0.6,3.5-1,5.6-1c1.2,0,2.3,0.1,3.5,0.3
		s2.2,0.5,3.2,0.8s1.9,0.8,2.8,1.3c0.9,0.5,1.7,1.1,2.3,1.7L294.6,393.4z"/>
	<polygon class="st11" points="335.7,392.7 324.8,392.7 324.8,424.2 315.8,424.2 315.8,392.7 305,392.7 305,385.6 335.7,385.6 	"/>
	<polygon class="st11" points="354.5,392.5 354.5,401.5 366.6,401.5 366.6,408.1 354.5,408.1 354.5,417.3 370.4,417.3 370.4,424.2 
		345.5,424.2 345.5,385.6 370.4,385.6 370.4,392.5 	"/>
	<path class="st11" d="M412.8,424.2h-8.1c-1.5,0-2.6-0.6-3.2-1.7l-6.4-11.2c-0.3-0.5-0.6-0.8-1-1s-0.9-0.3-1.6-0.3h-2.3v14.3h-9
		v-38.6h12.6c2.8,0,5.2,0.3,7.1,0.9c2,0.6,3.6,1.4,4.8,2.4c1.2,1,2.2,2.2,2.7,3.6c0.6,1.4,0.8,2.9,0.8,4.6c0,1.3-0.2,2.4-0.5,3.6
		c-0.3,1.1-0.8,2.1-1.5,3.1c-0.7,0.9-1.5,1.8-2.4,2.5c-1,0.7-2.1,1.4-3.3,1.8c0.6,0.3,1.1,0.7,1.6,1.1c0.5,0.5,1,1,1.4,1.6
		L412.8,424.2z M393.7,403.7c1.2,0,2.3-0.2,3.1-0.5c0.9-0.3,1.6-0.7,2.1-1.3s0.9-1.2,1.2-1.9c0.2-0.7,0.4-1.5,0.4-2.4
		c0-1.7-0.6-3-1.7-4s-2.8-1.4-5.1-1.4h-3.6v11.4H393.7z"/>
</g>
</svg>
